<svg width="40" height="40" viewBox="0 0 40 40" fill="none" xmlns="http://www.w3.org/2000/svg">
  <rect width="40" height="40" rx="8" fill="url(#gradient)"/>
  
  <!-- Medical cross/stethoscope inspired design -->
  <path d="M20 8C15.6 8 12 11.6 12 16C12 20.4 15.6 24 20 24C24.4 24 28 20.4 28 16C28 11.6 24.4 8 20 8ZM20 22C16.7 22 14 19.3 14 16C14 12.7 16.7 10 20 10C23.3 10 26 12.7 26 16C26 19.3 23.3 22 20 22Z" fill="white"/>
  
  <!-- Inner circle -->
  <path d="M20 12C17.8 12 16 13.8 16 16C16 18.2 17.8 20 20 20C22.2 20 24 18.2 24 16C24 13.8 22.2 12 20 12Z" fill="white"/>
  
  <!-- Medical symbol -->
  <path d="M20 26C18.9 26 18 26.9 18 28V30C18 31.1 18.9 32 20 32C21.1 32 22 31.1 22 30V28C22 26.9 21.1 26 20 26Z" fill="white"/>
  
  <defs>
    <linearGradient id="gradient" x1="0%" y1="0%" x2="100%" y2="100%">
      <stop offset="0%" style="stop-color:#2563eb"/>
      <stop offset="100%" style="stop-color:#06b6d4"/>
    </linearGradient>
  </defs>
</svg>